<svg xmlns="http://www.w3.org/2000/svg" viewBox="0 0 1100 300" font-family="'Inter','Helvetica Neue',Arial,sans-serif"><defs><filter id="ds" x="-30%" y="-30%" width="160%" height="160%"><feDropShadow dx="0" dy="2" stdDeviation="3" flood-color="#1a2b40" flood-opacity="0.15"/></filter><linearGradient id="g_teal" x1="0" y1="0" x2="0" y2="1"><stop offset="0" stop-color="#ebfcf7"/><stop offset="1" stop-color="#d2f3ea"/></linearGradient><linearGradient id="g_magenta" x1="0" y1="0" x2="0" y2="1"><stop offset="0" stop-color="#fff0f8"/><stop offset="1" stop-color="#fbd9ed"/></linearGradient><linearGradient id="g_green" x1="0" y1="0" x2="0" y2="1"><stop offset="0" stop-color="#eafaf0"/><stop offset="1" stop-color="#d6f5e2"/></linearGradient><marker id="ar" markerWidth="9" markerHeight="9" refX="6.4" refY="3" orient="auto"><path d="M0,0 L6.4,3 L0,6 Z" fill="#5d6b7c"/></marker></defs><rect width="1100" height="300" fill="#ffffff"/><g filter="url(#ds)"><rect x="40" y="44" width="200" height="82" rx="13" fill="url(#g_teal)" stroke="#0d9488" stroke-width="1.5"/></g><rect x="40" y="44" width="200" height="5" rx="2.5" fill="#0d9488"/><text x="140.0" y="83.0" fill="#063b3b" font-size="16" font-weight="700" text-anchor="middle">Orin Host</text><text x="140.0" y="101.0" fill="#0a5b53" font-size="12" text-anchor="middle">camera + robot IO</text><g filter="url(#ds)"><rect x="300" y="44" width="200" height="82" rx="13" fill="url(#g_teal)" stroke="#0d9488" stroke-width="1.5"/></g><rect x="300" y="44" width="200" height="5" rx="2.5" fill="#0d9488"/><text x="400.0" y="83.0" fill="#063b3b" font-size="16" font-weight="700" text-anchor="middle">robot_client</text><text x="400.0" y="101.0" fill="#0a5b53" font-size="12" text-anchor="middle">obs encode + buffer</text><g filter="url(#ds)"><rect x="560" y="44" width="200" height="82" rx="13" fill="url(#g_magenta)" stroke="#c026a6" stroke-width="1.5"/></g><rect x="560" y="44" width="200" height="5" rx="2.5" fill="#c026a6"/><text x="660.0" y="83.0" fill="#5b0a57" font-size="16" font-weight="700" text-anchor="middle">4090 policy_server</text><text x="660.0" y="101.0" fill="#7a2674" font-size="12" text-anchor="middle">π0.5 on CUDA</text><g filter="url(#ds)"><rect x="820" y="44" width="200" height="82" rx="13" fill="url(#g_magenta)" stroke="#c026a6" stroke-width="1.5"/></g><rect x="820" y="44" width="200" height="5" rx="2.5" fill="#c026a6"/><text x="920.0" y="83.0" fill="#5b0a57" font-size="16" font-weight="700" text-anchor="middle">Chunk Scheduler</text><text x="920.0" y="101.0" fill="#7a2674" font-size="12" text-anchor="middle">temporal aggregation</text><g filter="url(#ds)"><rect x="170" y="196" width="200" height="82" rx="13" fill="url(#g_green)" stroke="#12b76a" stroke-width="1.5"/></g><rect x="170" y="196" width="200" height="5" rx="2.5" fill="#12b76a"/><text x="270.0" y="235.0" fill="#0a7a47" font-size="16" font-weight="700" text-anchor="middle">Safety Gate</text><text x="270.0" y="253.0" fill="#2f8f63" font-size="12" text-anchor="middle">limits·watchdog·stale</text><path d="M240 85.0 H298" stroke="#5b6775" stroke-width="2.2" fill="none" marker-end="url(#ar)"/><text x="270.0" y="36" fill="#5b6775" font-size="11" text-anchor="middle">live observations</text><path d="M500 85.0 H558" stroke="#5b6775" stroke-width="2.2" fill="none" marker-end="url(#ar)"/><text x="530.0" y="36" fill="#5b6775" font-size="11" text-anchor="middle">gRPC obs</text><path d="M760 85.0 H818" stroke="#5b6775" stroke-width="2.2" fill="none" marker-end="url(#ar)"/><text x="790.0" y="36" fill="#5b6775" font-size="11" text-anchor="middle">policy rollout</text><path d="M920.0 44 V20 H400.0 V42" stroke="#c026a6" stroke-width="2.2" fill="none" marker-end="url(#ar)"/><text x="660.0" y="14" fill="#c026a6" font-size="11" text-anchor="middle">action chunks</text><path d="M400.0 126 V194 H270.1" stroke="#0d9488" stroke-width="2.2" fill="none" marker-end="url(#ar)"/><text x="496.0" y="184" fill="#0d9488" font-size="11" text-anchor="middle">candidate action</text><path d="M170 237.0 H140.0 V128" stroke="#12b76a" stroke-width="2.2" fill="none" marker-end="url(#ar)"/><text x="68.0" y="229.0" fill="#12b76a" font-size="11" text-anchor="middle">safe command</text></svg>
