<svg xmlns="http://www.w3.org/2000/svg" viewBox="0 0 1080 232" font-family="'Inter','Helvetica Neue',Arial,sans-serif"><defs><filter id="ds" x="-30%" y="-30%" width="160%" height="160%"><feDropShadow dx="0" dy="2" stdDeviation="3" flood-color="#1a2b40" flood-opacity="0.15"/></filter><linearGradient id="g_magenta" x1="0" y1="0" x2="0" y2="1"><stop offset="0" stop-color="#fff0f8"/><stop offset="1" stop-color="#fbd9ed"/></linearGradient><linearGradient id="g_amber" x1="0" y1="0" x2="0" y2="1"><stop offset="0" stop-color="#fff8ea"/><stop offset="1" stop-color="#fdeccb"/></linearGradient><linearGradient id="g_blue" x1="0" y1="0" x2="0" y2="1"><stop offset="0" stop-color="#eff6ff"/><stop offset="1" stop-color="#dcecfd"/></linearGradient><linearGradient id="g_teal" x1="0" y1="0" x2="0" y2="1"><stop offset="0" stop-color="#ebfcf7"/><stop offset="1" stop-color="#d2f3ea"/></linearGradient><linearGradient id="g_violet" x1="0" y1="0" x2="0" y2="1"><stop offset="0" stop-color="#f5efff"/><stop offset="1" stop-color="#e8defc"/></linearGradient><marker id="ar" markerWidth="9" markerHeight="9" refX="6.4" refY="3" orient="auto"><path d="M0,0 L6.4,3 L0,6 Z" fill="#5d6b7c"/></marker></defs><rect width="1080" height="232" fill="#ffffff"/><g filter="url(#ds)"><rect x="24" y="46" width="180" height="76" rx="13" fill="url(#g_blue)" stroke="#2f6fd0" stroke-width="1.5"/></g><rect x="24" y="46" width="180" height="5" rx="2.5" fill="#2f6fd0"/><text x="114.0" y="82.0" fill="#0f3a6e" font-size="17" font-weight="700" text-anchor="middle">AlohaMini</text><text x="114.0" y="100.0" fill="#36567c" font-size="12" text-anchor="middle">Teleoperation</text><g filter="url(#ds)"><rect x="237" y="46" width="180" height="76" rx="13" fill="url(#g_teal)" stroke="#0d9488" stroke-width="1.5"/></g><rect x="237" y="46" width="180" height="5" rx="2.5" fill="#0d9488"/><text x="327.0" y="82.0" fill="#063b3b" font-size="17" font-weight="700" text-anchor="middle">AlohaPro / Orin</text><text x="327.0" y="100.0" fill="#0a5b53" font-size="12" text-anchor="middle">Robot Runtime</text><g filter="url(#ds)"><rect x="450" y="46" width="180" height="76" rx="13" fill="url(#g_amber)" stroke="#d79224" stroke-width="1.5"/></g><rect x="450" y="46" width="180" height="5" rx="2.5" fill="#d79224"/><text x="540.0" y="82.0" fill="#6a4708" font-size="17" font-weight="700" text-anchor="middle">LeRobot</text><text x="540.0" y="100.0" fill="#7c5a1c" font-size="12" text-anchor="middle">Dataset Engine</text><g filter="url(#ds)"><rect x="663" y="46" width="180" height="76" rx="13" fill="url(#g_violet)" stroke="#7b61ff" stroke-width="1.5"/></g><rect x="663" y="46" width="180" height="5" rx="2.5" fill="#7b61ff"/><text x="753.0" y="82.0" fill="#31166c" font-size="17" font-weight="700" text-anchor="middle">A100</text><text x="753.0" y="100.0" fill="#492f86" font-size="12" text-anchor="middle">π0.5 Training</text><g filter="url(#ds)"><rect x="876" y="46" width="180" height="76" rx="13" fill="url(#g_magenta)" stroke="#c026a6" stroke-width="1.5"/></g><rect x="876" y="46" width="180" height="5" rx="2.5" fill="#c026a6"/><text x="966.0" y="82.0" fill="#5b0a57" font-size="17" font-weight="700" text-anchor="middle">4090</text><text x="966.0" y="100.0" fill="#7a2674" font-size="12" text-anchor="middle">Remote Inference</text><path d="M204 84.0 H235" stroke="#5b6775" stroke-width="2.2" fill="none" marker-end="url(#ar)"/><text x="220.5" y="38" fill="#5b6775" font-size="12" text-anchor="middle">teleop</text><path d="M417 84.0 H448" stroke="#5b6775" stroke-width="2.2" fill="none" marker-end="url(#ar)"/><text x="433.5" y="38" fill="#5b6775" font-size="12" text-anchor="middle">episodes</text><path d="M630 84.0 H661" stroke="#5b6775" stroke-width="2.2" fill="none" marker-end="url(#ar)"/><text x="646.5" y="38" fill="#5b6775" font-size="12" text-anchor="middle">curated data</text><path d="M843 84.0 H874" stroke="#5b6775" stroke-width="2.2" fill="none" marker-end="url(#ar)"/><text x="859.5" y="38" fill="#5b6775" font-size="12" text-anchor="middle">model</text><path d="M966.0 122 V188 H327.0 V124" stroke="#c026a6" stroke-width="2.2" fill="none" marker-end="url(#ar)"/><text x="646.5" y="206" fill="#c026a6" font-size="13" text-anchor="middle">action chunks (closed loop)</text></svg>
