<svg xmlns="http://www.w3.org/2000/svg" viewBox="0 0 1280 150" font-family="'Inter','Helvetica Neue',Arial,sans-serif"><defs><filter id="ds" x="-30%" y="-30%" width="160%" height="160%"><feDropShadow dx="0" dy="2" stdDeviation="3" flood-color="#1a2b40" flood-opacity="0.15"/></filter><linearGradient id="g_teal" x1="0" y1="0" x2="0" y2="1"><stop offset="0" stop-color="#ebfcf7"/><stop offset="1" stop-color="#d2f3ea"/></linearGradient><linearGradient id="g_amber" x1="0" y1="0" x2="0" y2="1"><stop offset="0" stop-color="#fff8ea"/><stop offset="1" stop-color="#fdeccb"/></linearGradient><linearGradient id="g_blue" x1="0" y1="0" x2="0" y2="1"><stop offset="0" stop-color="#eff6ff"/><stop offset="1" stop-color="#dcecfd"/></linearGradient><linearGradient id="g_violet" x1="0" y1="0" x2="0" y2="1"><stop offset="0" stop-color="#f5efff"/><stop offset="1" stop-color="#e8defc"/></linearGradient><marker id="ar" markerWidth="9" markerHeight="9" refX="6.4" refY="3" orient="auto"><path d="M0,0 L6.4,3 L0,6 Z" fill="#5d6b7c"/></marker></defs><rect width="1280" height="150" fill="#ffffff"/><g filter="url(#ds)"><rect x="20" y="34" width="192" height="86" rx="13" fill="url(#g_blue)" stroke="#2f6fd0" stroke-width="1.5"/></g><rect x="20" y="34" width="192" height="5" rx="2.5" fill="#2f6fd0"/><text x="116.0" y="75.0" fill="#0f3a6e" font-size="15" font-weight="700" text-anchor="middle">AlohaMini</text><text x="116.0" y="93.0" fill="#36567c" font-size="11" text-anchor="middle">bimanual leader</text><g filter="url(#ds)"><rect x="228" y="34" width="192" height="86" rx="13" fill="url(#g_teal)" stroke="#0d9488" stroke-width="1.5"/></g><rect x="228" y="34" width="192" height="5" rx="2.5" fill="#0d9488"/><text x="324.0" y="75.0" fill="#063b3b" font-size="15" font-weight="700" text-anchor="middle">AlohaPro / Orin</text><text x="324.0" y="93.0" fill="#0a5b53" font-size="11" text-anchor="middle">state+action+cams</text><g filter="url(#ds)"><rect x="436" y="34" width="192" height="86" rx="13" fill="url(#g_amber)" stroke="#d79224" stroke-width="1.5"/></g><rect x="436" y="34" width="192" height="5" rx="2.5" fill="#d79224"/><text x="532.0" y="75.0" fill="#6a4708" font-size="15" font-weight="700" text-anchor="middle">Sync Recorder</text><text x="532.0" y="93.0" fill="#7c5a1c" font-size="11" text-anchor="middle">video+state+action</text><g filter="url(#ds)"><rect x="644" y="34" width="192" height="86" rx="13" fill="url(#g_amber)" stroke="#d79224" stroke-width="1.5"/></g><rect x="644" y="34" width="192" height="5" rx="2.5" fill="#d79224"/><text x="740.0" y="75.0" fill="#6a4708" font-size="15" font-weight="700" text-anchor="middle">Dataset Curation</text><text x="740.0" y="93.0" fill="#7c5a1c" font-size="11" text-anchor="middle">visualize·delete·merge</text><g filter="url(#ds)"><rect x="852" y="34" width="192" height="86" rx="13" fill="url(#g_violet)" stroke="#7b61ff" stroke-width="1.5"/></g><rect x="852" y="34" width="192" height="5" rx="2.5" fill="#7b61ff"/><text x="948.0" y="75.0" fill="#31166c" font-size="15" font-weight="700" text-anchor="middle">A100 Training</text><text x="948.0" y="93.0" fill="#492f86" font-size="11" text-anchor="middle">bf16 + grad ckpt</text><g filter="url(#ds)"><rect x="1060" y="34" width="192" height="86" rx="13" fill="url(#g_violet)" stroke="#7b61ff" stroke-width="1.5"/></g><rect x="1060" y="34" width="192" height="5" rx="2.5" fill="#7b61ff"/><text x="1156.0" y="75.0" fill="#31166c" font-size="15" font-weight="700" text-anchor="middle">Checkpoint</text><text x="1156.0" y="93.0" fill="#492f86" font-size="11" text-anchor="middle">pretrained_model</text><path d="M212 77.0 H226" stroke="#5b6775" stroke-width="2.2" fill="none" marker-end="url(#ar)"/><path d="M420 77.0 H434" stroke="#5b6775" stroke-width="2.2" fill="none" marker-end="url(#ar)"/><path d="M628 77.0 H642" stroke="#5b6775" stroke-width="2.2" fill="none" marker-end="url(#ar)"/><path d="M836 77.0 H850" stroke="#5b6775" stroke-width="2.2" fill="none" marker-end="url(#ar)"/><path d="M1044 77.0 H1058" stroke="#5b6775" stroke-width="2.2" fill="none" marker-end="url(#ar)"/></svg>
